<svg xmlns="http://www.w3.org/2000/svg" xmlns:xlink="http://www.w3.org/1999/xlink" version="1.1" id="Layer_1" x="0px" y="0px" enable-background="new 0 0 1024 1024" xml:space="preserve" viewBox="384.6 369.54 264.09 394.58">
<path fill="#000000" opacity="1.000000" stroke="none" d=" M384.668304,547.982422   C384.668640,516.825806 384.724548,486.165863 384.596558,455.506744   C384.581329,451.856964 385.717834,449.300903 388.297699,446.773224   C413.409088,422.170105 438.440643,397.485168 463.402557,372.730347   C465.740753,370.411560 468.162323,369.535217 471.373535,369.543793   C506.031921,369.636139 540.690613,369.656464 575.349060,369.596954   C578.412781,369.591675 580.594055,370.510376 582.774414,372.728210   C599.710876,389.956207 616.779663,407.054077 633.817322,424.182526   C637.946838,428.334045 638.041199,429.046967 633.753540,432.907654   C609.246704,454.973999 584.675415,476.968719 560.172913,499.039825   C547.303589,510.632080 534.443604,522.237976 521.771423,534.043884   C518.470276,537.119324 515.163147,538.631470 510.613770,538.135315   C498.996216,536.868225 487.311737,537.496521 475.656555,537.247437   C472.790741,537.186157 470.624176,537.997009 468.544159,540.034058   C464.045776,544.439331 459.292603,548.584473 454.297241,553.152954   C459.306488,558.174133 463.254150,562.159668 467.234375,566.112366   C470.779999,569.633484 474.785553,572.790771 477.812195,576.708069   C481.072205,580.927429 484.881744,581.923645 489.903839,581.812073   C502.727936,581.527161 515.563965,581.610901 528.392090,581.781921   C532.166992,581.832275 534.913757,580.729126 537.626770,578.008484   C550.919556,564.678711 564.469238,551.605469 577.820679,538.333435   C580.041504,536.125732 582.070129,535.840454 584.951477,536.824341   C604.797424,543.601318 624.695923,550.224426 644.572510,556.911804   C649.711182,558.640808 650.020142,560.715332 645.582336,565.090759   C626.956238,583.455139 607.548645,601.099670 589.913513,620.368225   C579.843262,631.371277 569.304199,635.114746 554.722839,634.593262   C525.101624,633.533813 495.414062,634.226013 465.755371,634.423950   C461.207306,634.454285 457.989441,633.040039 454.798615,629.862915   C432.721985,607.880798 410.613312,585.926270 388.184326,564.305908   C383.090698,559.395874 385.335876,553.843384 384.668304,547.982422  M530.319519,453.820038   C536.398438,448.126038 542.512817,442.469238 548.532166,436.712982   C550.110413,435.203766 552.620544,433.933228 551.098999,430.954956   C549.679443,428.176300 548.085266,426.140961 544.332397,426.178467   C527.671326,426.344879 511.007385,426.232635 494.344543,426.188477   C492.097900,426.182526 490.180878,426.621155 488.453827,428.286804   C473.224609,442.974792 457.941681,457.607178 442.646973,472.227081   C440.988525,473.812347 440.093658,475.539032 440.106354,477.916779   C440.194336,494.412415 440.154510,510.908752 440.241180,527.404419   C440.262329,531.422974 443.297607,533.044556 446.977661,531.064026   C448.120911,530.448792 449.041138,529.396545 450.014648,528.491821   C476.616608,503.769287 503.212158,479.039856 530.319519,453.820038  M421.711060,589.787659   C433.994659,601.990295 446.346069,614.126099 458.502258,626.454346   C460.822754,628.807800 463.128662,629.755188 466.375519,629.705261   C486.012238,629.403137 505.651367,629.154785 525.289978,629.131836   C533.461060,629.122253 541.635010,629.806091 550.662231,628.586975   C531.368225,623.394653 512.918701,618.480042 493.738403,617.351135   C489.254913,617.087219 485.319550,615.839294 481.656677,613.265259   C465.858795,602.163452 449.814606,591.400024 434.259827,579.969482   C426.484955,574.256042 418.998718,578.255554 410.030151,577.806885   C414.532684,582.430542 417.871674,585.859375 421.711060,589.787659  M493.231445,420.807556   C508.056488,420.842255 522.920288,420.243866 537.692017,421.148438   C546.596313,421.693726 551.833313,418.620880 554.911560,410.735138   C554.971313,410.582214 555.071899,410.442627 555.167603,410.306793   C556.491577,408.426727 556.381775,406.697357 554.938049,404.847137   C551.659973,400.645996 548.486633,396.362457 545.306274,392.085999   C544.026855,390.365692 542.549622,389.602081 540.245544,389.627686   C521.925720,389.831207 503.604004,389.856323 485.283112,389.976166   C483.321991,389.989014 481.285187,389.576141 478.748077,390.933167   C482.739960,400.799683 486.106659,410.955872 491.510040,420.279053   C491.642059,420.506836 492.099670,420.545898 493.231445,420.807556  M566.949890,468.435638   C579.326599,457.072998 591.703308,445.710358 604.740051,433.741760   C597.507080,432.661346 591.770996,434.405487 585.962769,434.324829   C582.049316,434.270477 579.118286,435.863373 576.270630,438.562439   C555.004395,458.718781 533.588684,478.717285 512.245667,498.792786   C504.527344,506.052734 496.879761,513.387939 488.292236,521.551636   C495.408936,521.551636 501.324890,521.569031 507.240601,521.540405   C508.872192,521.532471 509.971741,520.419861 511.078369,519.410522   C529.530029,502.581848 547.976562,485.747650 566.949890,468.435638  M551.494507,615.685120   C554.261841,615.685120 557.029175,615.685120 560.879333,615.685120   C556.889709,608.701782 553.607117,602.594788 549.982605,596.697998   C544.814880,588.290588 546.309753,588.963013 551.430664,583.741333   C551.556885,583.612671 551.412842,583.218994 551.362793,582.467529   C530.789062,590.180542 509.231079,585.433838 487.265320,587.559631   C491.425903,593.409363 495.241852,598.403564 498.653961,603.659973   C503.630310,611.326233 511.433624,613.948975 519.620728,614.444641   C529.906555,615.067322 540.255981,614.950562 551.494507,615.685120  M481.965088,427.501831   C483.356842,425.456482 487.097015,424.531281 485.761810,421.194153   C481.961334,411.695557 477.886749,402.306580 473.542999,391.977997   C468.853882,397.388245 462.907562,400.353607 460.893311,406.788910   C457.026001,419.144348 453.271240,431.534973 449.467072,443.910156   C447.460510,450.437653 445.448181,456.963379 443.438477,463.489899   C443.701630,463.625183 443.964783,463.760437 444.227936,463.895721   C456.640045,451.926910 469.052124,439.958099 481.965088,427.501831  M548.060669,492.577759   C537.709778,501.986572 527.317078,511.349976 517.026978,520.824829   C512.402832,525.082581 512.497864,525.278015 517.713989,530.701477   C553.884949,497.982025 590.072693,465.247437 626.260437,432.512848   C620.638855,433.147308 615.074768,430.643036 610.251221,435.170410   C589.854431,454.314819 569.166382,473.148865 548.060669,492.577759  M594.084229,586.555969   C599.850159,580.603882 605.616028,574.651794 611.773315,568.295593   C595.708252,572.172363 580.194031,575.812195 564.742859,579.702087   C559.427063,581.040344 556.906433,586.168884 553.034912,589.474915   C552.708130,589.753967 552.691833,590.846619 552.962646,591.308105   C557.290222,598.681396 560.963562,606.472351 567.470764,614.965088   C576.538269,605.268066 585.054077,596.161072 594.084229,586.555969  M550.500000,374.343323   C524.600281,374.343323 498.700562,374.343323 472.697418,374.343323   C473.715363,382.333221 475.313477,384.648132 479.782288,384.650482   C507.274872,384.664886 534.767944,384.686615 562.259766,384.521545   C570.467285,384.472290 571.664246,383.201996 573.961426,374.344818   C566.380920,374.344818 558.940491,374.344818 550.500000,374.343323  M560.352844,446.851318   C564.135742,443.271149 567.918579,439.691010 572.055542,435.775726   C563.470398,434.694855 556.647156,435.280212 550.407837,441.653839   C539.355591,452.944000 527.923096,464.026917 515.567017,473.832184   C501.390808,485.081909 495.522186,501.443176 486.789734,516.182678   C511.138306,493.233673 535.486877,470.284607 560.352844,446.851318  M391.923950,456.829346   C387.718903,456.735016 389.404907,460.009552 389.398102,461.797150   C389.286743,490.923309 389.309998,520.050049 389.352356,549.176575   C389.354645,550.750977 388.789734,552.503601 390.452881,554.276367   C393.717743,552.565613 396.969788,550.615845 400.421448,549.129578   C403.243866,547.914307 403.660126,546.298218 402.569214,543.659363   C400.177490,537.873718 399.653412,531.799927 399.684570,525.571594   C399.780365,506.431946 399.399658,487.285126 399.820038,468.154602   C399.951294,462.181122 398.196350,458.710236 391.923950,456.829346  M436.837921,467.005249   C442.586945,448.763611 448.335968,430.521942 454.084991,412.280304   C453.569702,411.933014 453.054413,411.585724 452.539124,411.238434   C437.841827,426.833527 423.144562,442.428619 408.263672,458.218567   C407.943451,457.656311 408.035400,458.090057 408.274200,458.197601   C416.617218,461.954834 424.986023,465.655029 433.320404,469.431183   C435.354034,470.352539 436.014221,469.163269 436.837921,467.005249  M468.802338,574.698730   C462.929871,568.901550 457.057434,563.104370 451.029205,557.153381   C445.480957,563.081177 440.410370,568.498596 434.874786,574.412842   C450.594757,585.479126 466.683929,596.805359 483.638428,608.740784   C481.360352,595.367615 480.843994,582.851501 468.802338,574.698730  M404.651642,438.152649   C400.488007,442.273865 396.324341,446.395050 392.012756,450.662689   C400.806091,456.075897 400.838867,456.109467 407.231598,449.865997   C422.102051,435.342712 436.665894,420.490570 451.903595,406.364594   C459.385376,399.428650 459.726349,390.332703 462.661530,381.949097   C461.868195,381.283295 461.074860,380.617462 460.281525,379.951660   C441.907410,399.187805 423.533264,418.423950 404.651642,438.152649  M416.761444,505.322540   C422.283508,495.341095 427.805573,485.359650 433.453217,475.151215   C424.100189,470.296967 414.872894,466.826599 405.178650,462.837250   C405.178650,484.299438 405.178650,504.987152 405.178650,526.862366   C409.255219,519.301331 412.844696,512.643799 416.761444,505.322540  M606.118530,596.602783   C616.359009,585.786377 626.599487,574.969971 636.585510,564.422363   C629.809814,564.187073 622.932312,564.387024 616.788208,570.884460   C603.068054,585.393677 588.523621,599.123535 574.309082,613.165039   C568.246399,619.153870 568.321045,620.574707 575.571350,626.768311   C585.547913,616.902039 595.570190,606.990540 606.118530,596.602783  M412.867188,523.293457   C411.238831,526.386108 409.925598,529.704895 407.906952,532.517395   C404.999023,536.568909 405.769043,540.126709 408.532776,544.292725   C416.649200,540.537170 424.760071,536.783447 432.871643,533.031250   C434.503845,532.276245 434.740173,530.831482 434.740204,529.268738   C434.740570,514.507263 434.740417,499.745850 434.740417,484.984375   C434.452698,484.889221 434.164948,484.794037 433.877228,484.698883   C426.993103,497.349457 420.108978,510.000031 412.867188,523.293457  M579.832031,400.668365   C576.971436,398.192932 575.072937,394.689178 571.235474,392.526520   C568.194519,396.656494 566.241943,401.230103 563.963684,405.611053   C563.093201,407.284882 564.041504,408.471771 564.974548,409.666443   C569.485107,415.442017 573.989014,421.222900 578.530945,426.973724   C579.551025,428.265259 580.567810,429.876556 582.524109,429.527374   C589.822266,428.224823 597.404846,429.365631 605.159363,427.012634   C596.664246,418.175171 588.494568,409.676239 579.832031,400.668365  M412.346954,571.807129   C418.863220,573.021545 425.776855,573.722534 430.977997,569.215332   C440.261230,561.170654 448.822754,552.291748 457.658447,543.733215   C459.500702,541.948669 461.223236,540.040588 463.767212,537.391663   C459.102020,537.182007 455.660767,537.084900 452.228851,536.850342   C450.336090,536.721008 448.632996,536.783447 447.197815,538.303101   C436.231445,549.914795 423.907562,560.099426 412.346954,571.807129  M415.769318,561.263489   C424.179443,553.262878 433.275635,545.945801 440.397797,536.474792   C423.132080,541.809082 407.793121,550.765625 392.181824,559.751038   C394.832672,563.957458 398.410004,566.268311 401.071289,569.413513   C402.977631,571.666504 404.710876,571.759888 406.848572,569.562378   C409.513245,566.823120 412.438080,564.336914 415.769318,561.263489  M590.638977,400.958527   C591.227478,404.938751 593.349487,407.941956 596.287964,410.623840   C599.970825,413.985229 603.916260,417.251923 606.814941,421.238251   C612.379456,428.890747 619.628479,426.840790 627.559021,426.176208   C613.164734,412.024048 599.325623,398.417816 585.579468,384.902893   C587.129883,389.807007 588.773376,395.005371 590.638977,400.958527  M581.869202,549.438477   C581.381897,547.730286 580.894592,546.022095 580.008484,542.915955   C568.165161,555.958984 557.010193,568.244019 545.855225,580.528992   C545.403809,580.165771 544.952393,579.802490 544.500916,579.439270   C550.080444,577.521240 556.596619,577.969055 561.278259,574.018005   C567.997131,568.347717 574.089783,561.937256 580.481079,555.875793   C582.195801,554.249573 583.185425,552.509399 581.869202,549.438477  M481.440491,513.973267   C484.358734,508.845734 487.276978,503.718201 490.897064,497.357513   C478.280426,509.136139 466.723053,519.925842 454.890137,530.972778   C468.271820,533.726624 470.568909,532.741516 476.848480,521.945435   C478.267090,519.506592 479.666412,517.056580 481.440491,513.973267  M580.705322,562.165344   C577.449707,565.366760 574.194031,568.568115 570.938416,571.769531   C584.792908,569.855225 598.003967,566.914917 611.979431,562.504089   C605.013733,560.893494 599.097717,559.884155 593.422180,558.106934   C588.302856,556.503906 584.360107,557.282471 580.705322,562.165344  M630.971436,558.617432   C630.354431,557.144836 628.813354,557.174683 627.656982,556.769104   C614.839966,552.274231 601.996155,547.855408 589.136902,543.482483   C588.152405,543.147705 587.070740,542.228516 585.915771,543.182800   C587.099915,551.804016 587.100952,551.799377 595.006348,553.545837   C600.666748,554.796265 606.286011,556.281799 611.992615,557.260193   C618.113953,558.309692 624.136719,561.073303 630.971436,558.617432  M554.760010,421.128754   C552.679321,426.245209 555.294495,430.679016 560.567444,430.588135   C564.633362,430.518097 568.691467,429.992096 573.980591,429.571136   C569.044861,423.250183 564.807007,417.822906 560.170532,411.885193   C558.129150,415.398285 556.639160,417.962524 554.760010,421.128754  M477.724213,531.065796   C477.625946,531.199463 477.492065,531.320618 477.439423,531.470276   C477.387207,531.618713 477.400208,531.938904 477.412872,531.940369   C488.545715,533.231567 499.678406,532.642334 511.394379,532.561035   C509.895050,529.324280 509.429535,526.278076 505.687164,526.327637   C499.059143,526.415344 492.429993,526.096252 485.801727,526.749390   C482.617554,527.063171 480.082886,528.197449 477.724213,531.065796  M564.603149,393.403717   C565.707886,391.411865 566.429321,389.517883 562.984070,389.461395   C558.951843,389.395233 554.917603,389.445923 550.884277,389.445923   C553.786926,393.925964 555.281311,398.675659 559.473755,401.355194   C561.940186,399.109100 562.904114,396.423035 564.603149,393.403717  M554.393921,623.903931   C558.544128,624.669373 562.511536,626.466980 567.160156,626.420471   C566.425781,622.967041 564.863037,621.327454 561.459656,621.049927   C554.724243,620.500427 547.995728,620.252686 541.164917,620.692078   C545.302612,621.714355 549.440308,622.736694 554.393921,623.903931  M488.048035,602.780701   C489.889099,612.361389 491.270966,613.498474 499.467560,611.990417   C494.601471,607.352417 491.519562,601.376526 486.457794,595.720703   C487.069122,598.512634 487.453949,600.270081 488.048035,602.780701  M582.491882,395.842896   C582.758423,395.978149 583.025024,396.113403 583.291565,396.248657   C583.352173,396.104095 583.497742,395.932007 583.461121,395.818909   C581.793884,390.666046 580.110718,385.518311 578.331299,380.069580   C573.586243,386.532990 573.585754,386.533478 578.363831,391.476746   C579.636047,392.792938 580.912354,394.105103 582.491882,395.842896  M468.001129,383.169312   C467.109100,385.921570 466.217102,388.673859 465.189514,391.844482   C467.810974,391.100586 468.990448,389.469482 470.032837,387.930756   C471.520966,385.733948 470.319519,382.694153 468.001129,383.169312  z"/>
<path fill="#000000" opacity="1.000000" stroke="none" d=" M637.118286,719.388306   C639.485840,729.323059 637.914124,739.014832 638.368713,748.625732   C638.502258,751.449402 638.145813,754.309509 638.434937,757.109436   C638.908569,761.696594 637.092529,763.230042 632.521973,763.208313   C628.066711,763.187134 626.684204,761.421021 626.772705,757.236816   C626.959351,748.417236 626.916382,739.591187 626.862366,730.768494   C626.803345,721.133728 622.197327,715.930847 613.490112,715.472656   C605.128906,715.032776 597.850830,721.142822 597.327759,729.846191   C596.789246,738.806885 597.075684,747.814697 596.872559,756.798950   C596.738831,762.711243 592.768921,765.115540 587.273743,762.872437   C585.304138,762.068420 585.163940,760.421570 585.160278,758.765259   C585.107300,734.627014 585.103333,710.488708 585.050720,686.350464   C585.044861,683.644653 586.109314,682.135132 588.921570,682.638855   C591.789062,683.152405 596.336182,680.774414 596.614441,686.243347   C596.968628,693.205444 596.838135,700.191589 596.973389,707.166199   C597.001343,708.606018 597.278748,710.040955 597.455444,711.604370   C616.680420,700.808105 630.210876,703.417725 637.118286,719.388306  z"/>
<path fill="#000000" opacity="1.000000" stroke="none" d=" M433.127258,761.174744   C421.356995,755.841064 415.883118,746.575439 415.959015,734.444580   C416.031494,722.864807 420.739227,713.236755 431.828827,708.260315   C442.936096,703.275940 453.916504,703.733704 463.724670,711.662231   C471.121002,717.641113 473.570587,726.020081 473.840881,735.155090   C473.961090,739.218750 470.952179,738.724060 468.209503,738.737427   C455.906006,738.797424 443.602875,738.948059 431.300110,739.106079   C430.508301,739.116211 429.720825,739.463989 428.977509,739.643616   C428.822021,746.935303 435.373108,752.900330 444.253632,753.658264   C450.054840,754.153320 455.658234,753.370789 460.312805,749.623962   C464.125702,746.554810 465.573975,749.995911 467.548187,751.876343   C470.253845,754.453552 467.878265,756.137085 466.090607,757.462280   C455.990906,764.948303 445.020569,765.641479 433.127258,761.174744  M433.023560,719.467468   C430.127960,722.266724 428.001068,725.450989 427.576141,729.992981   C437.664948,729.992981 447.415924,730.071472 457.164673,729.958984   C461.870789,729.904663 462.604706,728.435913 460.492157,724.087402   C455.834534,714.499939 443.368866,712.146301 433.023560,719.467468  z"/>
<path fill="#000000" opacity="1.000000" stroke="none" d=" M567.777710,721.664429   C562.796326,718.585327 558.289673,715.270935 552.196838,715.282166   C543.637268,715.297913 537.100342,719.420166 534.287109,726.997925   C531.233887,735.222168 533.419495,744.055115 539.792236,749.246277   C546.201355,754.466980 555.183838,755.018799 562.186157,750.622131   C568.540039,746.632324 568.809021,746.677979 574.302185,752.980164   C569.130554,760.607483 561.380676,763.874695 552.687134,763.927124   C540.894775,763.998230 530.637695,759.771851 524.851013,748.714172   C519.132141,737.786072 519.817444,726.864563 527.021729,716.697571   C535.648438,704.523499 555.648254,701.102478 568.389587,709.454651   C576.134094,714.531372 576.091309,716.406372 567.777710,721.664429  z"/>
<path fill="#000000" opacity="1.000000" stroke="none" d=" M487.727417,724.093323   C487.723389,722.443848 487.629028,721.270081 487.737244,720.115356   C488.045258,716.828247 486.951721,714.987244 483.305420,715.349487   C480.388367,715.639404 478.664337,714.779663 478.602295,711.283020   C478.542542,707.913452 479.721893,706.253235 483.050385,706.251221   C486.648468,706.249084 488.182343,704.553223 487.783356,700.961243   C487.637512,699.648376 487.797363,698.301514 487.818695,696.970154   C487.919708,690.669861 488.130981,690.622986 494.260956,690.564331   C497.838287,690.530151 499.640594,691.717773 499.264954,695.450195   C499.231812,695.779358 499.267456,696.115417 499.271393,696.448303   C499.393341,706.731506 498.052002,705.948120 508.513794,706.039978   C511.713654,706.068115 514.362610,706.234314 514.339661,710.753357   C514.317383,715.176270 511.946411,715.433350 508.585297,715.434326   C498.326447,715.437256 499.342285,714.027100 499.316833,724.777283   C499.300659,731.601196 499.269135,738.426025 499.355103,745.249084   C499.443634,752.273865 503.156097,755.122620 509.690277,752.633423   C513.638855,751.129272 514.666382,753.334351 516.054138,755.945618   C517.635986,758.922180 515.748779,760.141846 513.594360,761.390930   C501.391388,768.466064 488.048523,761.109314 487.766296,747.046387   C487.616028,739.559631 487.733124,732.067505 487.727417,724.093323  z"/>
</svg>